<?xml version="1.0" standalone="no"?>
<!DOCTYPE svg PUBLIC "-//W3C//DTD SVG 20010904//EN"
 "http://www.w3.org/TR/2001/REC-SVG-20010904/DTD/svg10.dtd">
<svg version="1.0" xmlns="http://www.w3.org/2000/svg"
 width="260.000000pt" height="260.000000pt" viewBox="0 0 260.000000 260.000000"
 preserveAspectRatio="xMidYMid meet">
<metadata>
Created by potrace 1.14, written by Peter Selinger 2001-2017
</metadata>
<g transform="translate(0.000000,260.000000) scale(0.100000,-0.100000)"
fill="#000000" stroke="none">
<path d="M1183 2593 c20 -2 54 -2 75 0 20 2 3 4 -38 4 -41 0 -58 -2 -37 -4z"/>
<path d="M1343 2593 c20 -2 54 -2 75 0 20 2 3 4 -38 4 -41 0 -58 -2 -37 -4z"/>
<path d="M1093 2583 c9 -2 25 -2 35 0 9 3 1 5 -18 5 -19 0 -27 -2 -17 -5z"/>
<path d="M1473 2583 c9 -2 25 -2 35 0 9 3 1 5 -18 5 -19 0 -27 -2 -17 -5z"/>
<path d="M1038 2573 c6 -2 18 -2 25 0 6 3 1 5 -13 5 -14 0 -19 -2 -12 -5z"/>
<path d="M1538 2573 c6 -2 18 -2 25 0 6 3 1 5 -13 5 -14 0 -19 -2 -12 -5z"/>
<path d="M965 2560 c-25 -11 1 -11 35 0 20 6 21 8 5 8 -11 0 -29 -3 -40 -8z"/>
<path d="M1600 2560 c34 -11 60 -11 35 0 -11 5 -29 8 -40 8 -16 0 -15 -2 5 -8z"/>
<path d="M820 2511 c-284 -116 -509 -313 -658 -576 -41 -74 -112 -243 -112
-266 1 -8 14 20 29 62 68 183 166 338 299 473 137 140 302 247 491 317 42 15
69 28 61 28 -8 1 -58 -17 -110 -38z"/>
<path d="M1731 2521 c313 -116 568 -339 714 -622 26 -51 60 -126 76 -168 15
-42 28 -70 29 -62 0 23 -71 192 -112 266 -118 209 -294 385 -503 503 -74 41
-243 112 -266 112 -8 -1 20 -14 62 -29z"/>
<path d="M1615 2276 c-88 -34 -184 -84 -211 -111 -15 -15 -25 -41 -30 -74 -6
-44 -9 -50 -33 -54 -14 -2 -1 -5 29 -6 117 -3 312 -78 323 -123 3 -13 9 -70
13 -127 l7 -103 -27 -22 c-26 -21 -26 -21 -14 -86 l12 -65 6 40 c3 22 14 53
24 68 18 26 18 36 7 158 -7 72 -11 132 -9 135 3 2 23 -12 46 -32 l42 -36 0
-99 c0 -92 2 -103 31 -154 25 -44 37 -56 63 -61 25 -4 37 -14 47 -37 12 -26
20 -32 46 -32 30 0 33 -2 38 -40 3 -22 7 -53 9 -70 2 -16 4 -5 3 26 0 37 5 64
16 80 10 13 17 42 17 67 0 35 6 52 30 79 27 31 30 40 30 106 0 45 5 80 14 92
31 46 29 67 -23 250 -26 90 -38 115 -64 138 -17 15 -39 27 -47 27 -9 0 -50 17
-91 39 -64 33 -86 39 -159 44 -73 5 -94 2 -145 -17z m149 -362 c11 -27 7 -37
-9 -24 -16 14 -20 40 -6 40 5 0 12 -7 15 -16z m122 -166 c50 -68 114 -191 114
-220 0 -24 -27 -23 -40 1 -5 11 -10 40 -10 65 0 50 -15 61 -30 21 -14 -36 -49
-34 -56 4 -4 17 -15 38 -25 47 -15 13 -19 31 -19 81 0 35 4 63 10 63 6 0 31
-28 56 -62z"/>
<path d="M705 2260 c-16 -5 -58 -7 -92 -4 -126 13 -154 -21 -152 -183 2 -82
-2 -117 -14 -147 -23 -53 -21 -82 9 -134 26 -43 26 -48 20 -161 -4 -64 -12
-156 -18 -204 -11 -77 -10 -91 5 -116 15 -26 15 -33 -3 -110 -25 -105 -25
-132 1 -166 20 -24 21 -35 16 -111 -3 -46 -14 -125 -23 -175 -21 -117 -12
-158 46 -194 35 -22 40 -30 41 -63 0 -20 1 -77 2 -125 2 -84 4 -90 30 -113 36
-30 68 -30 104 0 25 22 28 31 31 102 4 68 8 80 28 97 13 10 25 26 25 35 1 9 5
-8 10 -38 11 -67 45 -103 92 -98 27 3 32 -1 39 -29 21 -83 127 -79 153 5 5 19
12 22 31 18 13 -4 39 0 58 8 28 12 37 23 46 58 7 24 9 66 6 96 l-6 52 47 1 48
2 -57 6 c-31 3 -60 10 -64 14 -5 4 5 57 20 117 27 105 28 113 16 190 -12 80
-12 81 14 120 30 46 32 73 11 215 -8 55 -17 150 -21 210 -6 108 -5 111 20 144
20 28 26 46 25 85 -1 48 -1 49 -10 20 -5 -18 -21 -39 -35 -49 l-27 -17 6 -112
c4 -61 15 -174 26 -251 18 -125 19 -142 5 -162 -8 -13 -19 -23 -24 -23 -18 0
-21 -43 -9 -130 12 -86 12 -91 -15 -181 -21 -71 -26 -102 -21 -137 6 -43 6
-45 -17 -39 -13 4 -28 7 -35 7 -6 0 -13 15 -15 32 -4 39 -30 49 -59 22 -20
-18 -22 -18 -73 9 -168 88 -302 259 -358 452 -17 62 -22 106 -22 195 0 172 39
294 140 437 44 62 141 153 163 153 12 0 10 -157 -4 -320 -3 -37 0 -63 10 -80
40 -68 39 -65 26 -205 -12 -125 -12 -137 4 -162 15 -22 17 -41 12 -110 -3 -46
-3 -82 -1 -80 2 2 11 52 20 111 l16 106 -26 31 c-17 20 -24 38 -21 52 9 39 25
190 25 231 0 31 -6 45 -25 61 l-25 20 9 182 c5 100 12 186 16 193 24 38 230
109 325 111 33 1 47 4 34 7 -12 4 -57 45 -100 91 -44 46 -95 91 -114 99 -61
26 -296 47 -345 32z m140 -359 c3 -5 1 -12 -5 -16 -5 -3 -10 1 -10 9 0 18 6
21 15 7z"/>
<path d="M1203 1982 c-22 -24 -23 -54 -2 -107 7 -19 8 -18 8 3 1 13 6 32 12
43 5 11 9 35 7 53 l-3 32 -22 -24z"/>
<path d="M1363 1879 c-17 -156 -17 -172 10 -205 19 -24 22 -40 21 -109 0 -44
-3 -109 -7 -145 -4 -43 -3 -56 3 -37 13 42 32 283 25 309 -4 13 -18 35 -32 49
-24 26 -25 28 -13 100 6 41 10 92 8 114 -2 26 -7 -1 -15 -76z"/>
<path d="M811 1822 c-1 -12 -10 -30 -21 -39 -23 -20 -24 -46 -5 -128 14 -57
14 -58 9 -12 -4 33 -1 55 9 70 21 33 26 62 17 99 -6 24 -8 27 -9 10z"/>
<path d="M1232 1740 c0 -14 2 -19 5 -12 2 6 2 18 0 25 -3 6 -5 1 -5 -13z"/>
<path d="M35 1620 c-4 -17 -5 -34 -2 -36 2 -3 7 10 11 27 8 42 0 50 -9 9z"/>
<path d="M2552 1640 c0 -8 4 -26 8 -40 6 -20 8 -21 8 -5 0 11 -3 29 -8 40 -5
12 -8 14 -8 5z"/>
<path d="M808 1517 c5 -71 3 -80 -18 -102 l-23 -25 28 -199 c23 -164 26 -203
15 -216 -7 -8 -19 -15 -26 -15 -16 0 -19 -37 -5 -59 8 -13 12 -13 26 -1 34 28
35 55 9 239 l-25 179 20 41 c24 46 25 80 7 171 l-14 65 6 -78z"/>
<path d="M22 1550 c0 -14 2 -19 5 -12 2 6 2 18 0 25 -3 6 -5 1 -5 -13z"/>
<path d="M2572 1550 c0 -14 2 -19 5 -12 2 6 2 18 0 25 -3 6 -5 1 -5 -13z"/>
<path d="M12 1490 c0 -19 2 -27 5 -17 2 9 2 25 0 35 -3 9 -5 1 -5 -18z"/>
<path d="M2582 1490 c0 -19 2 -27 5 -17 2 9 2 25 0 35 -3 9 -5 1 -5 -18z"/>
<path d="M1700 1437 c0 -17 -9 -32 -25 -43 -27 -17 -31 -55 -15 -119 l8 -30 1
28 c0 16 11 42 22 59 15 20 21 44 21 75 -1 48 -12 75 -12 30z"/>
<path d="M3 1380 c0 -41 2 -58 4 -37 2 20 2 54 0 75 -2 20 -4 3 -4 -38z"/>
<path d="M2593 1380 c0 -41 2 -58 4 -37 2 20 2 54 0 75 -2 20 -4 3 -4 -38z"/>
<path d="M1360 1285 c0 -14 7 -42 15 -63 10 -22 14 -53 11 -77 -4 -37 -4 -36
9 10 18 70 17 106 -4 133 -25 28 -31 28 -31 -3z"/>
<path d="M3 1220 c0 -41 2 -58 4 -37 2 20 2 54 0 75 -2 20 -4 3 -4 -38z"/>
<path d="M2593 1220 c0 -41 2 -58 4 -37 2 20 2 54 0 75 -2 20 -4 3 -4 -38z"/>
<path d="M2035 1228 c-36 -290 -224 -531 -484 -623 l-41 -14 0 56 c0 55 -1 57
-51 103 l-50 46 2 105 c2 102 1 106 -24 131 l-27 27 0 -38 c0 -20 7 -46 15
-57 10 -13 14 -46 15 -112 0 -104 6 -121 61 -173 26 -24 39 -45 39 -62 0 -30
-12 -35 -108 -47 l-67 -9 78 4 77 5 0 -48 c0 -78 46 -120 109 -102 l31 9 0
-43 c0 -63 17 -102 49 -116 60 -24 111 14 111 83 0 27 8 48 25 69 14 16 26 39
27 51 1 12 4 -22 7 -75 7 -119 26 -151 88 -156 30 -2 44 2 59 19 17 19 19 37
19 178 0 86 5 163 10 172 6 9 30 32 55 51 42 31 45 38 50 88 3 30 13 68 24 83
16 24 18 37 10 90 -4 34 -8 112 -9 172 0 121 -8 146 -55 170 -16 8 -31 15 -34
15 -2 0 -7 -24 -11 -52z"/>
<path d="M1672 1220 c0 -14 2 -19 5 -12 2 6 2 18 0 25 -3 6 -5 1 -5 -13z"/>
<path d="M1682 1170 c0 -14 2 -19 5 -12 2 6 2 18 0 25 -3 6 -5 1 -5 -13z"/>
<path d="M1785 1148 c-4 -26 -5 -53 -2 -60 2 -7 8 8 12 34 4 26 5 53 2 60 -2
7 -8 -8 -12 -34z"/>
<path d="M12 1110 c0 -19 2 -27 5 -17 2 9 2 25 0 35 -3 9 -5 1 -5 -18z"/>
<path d="M1688 1113 c-4 -18 -15 -34 -27 -38 -26 -8 -34 -47 -19 -98 l12 -42
5 30 c3 17 14 42 24 57 13 18 17 40 15 75 -3 44 -4 46 -10 16z"/>
<path d="M2582 1110 c0 -19 2 -27 5 -17 2 9 2 25 0 35 -3 9 -5 1 -5 -18z"/>
<path d="M22 1050 c0 -14 2 -19 5 -12 2 6 2 18 0 25 -3 6 -5 1 -5 -13z"/>
<path d="M1772 1050 c0 -14 2 -19 5 -12 2 6 2 18 0 25 -3 6 -5 1 -5 -13z"/>
<path d="M2572 1050 c0 -14 2 -19 5 -12 2 6 2 18 0 25 -3 6 -5 1 -5 -13z"/>
<path d="M32 1005 c0 -11 3 -29 8 -40 11 -25 11 1 0 35 -6 20 -8 21 -8 5z"/>
<path d="M1760 990 c0 -17 7 -45 17 -63 l16 -32 14 33 c13 32 12 34 -17 63
l-30 31 0 -32z"/>
<path d="M2556 989 c-8 -42 0 -50 9 -9 4 17 5 34 2 36 -2 3 -7 -10 -11 -27z"/>
<path d="M50 931 c0 -23 71 -192 112 -266 118 -209 294 -385 503 -503 74 -41
243 -112 266 -112 8 1 -20 14 -62 29 -183 68 -338 166 -473 299 -140 137 -247
302 -317 491 -15 42 -28 70 -29 62z"/>
<path d="M2526 885 c-28 -89 -121 -267 -185 -352 -71 -95 -192 -215 -283 -282
-80 -58 -222 -133 -327 -172 -42 -15 -70 -28 -62 -29 23 0 192 71 266 112 209
118 385 294 503 503 44 79 115 250 110 266 -2 6 -12 -14 -22 -46z"/>
<path d="M965 40 c11 -5 29 -8 40 -8 16 0 15 2 -5 8 -34 11 -60 11 -35 0z"/>
<path d="M1600 40 c-20 -6 -21 -8 -5 -8 11 0 29 3 40 8 25 11 -1 11 -35 0z"/>
<path d="M1038 23 c6 -2 18 -2 25 0 6 3 1 5 -13 5 -14 0 -19 -2 -12 -5z"/>
<path d="M1538 23 c6 -2 18 -2 25 0 6 3 1 5 -13 5 -14 0 -19 -2 -12 -5z"/>
<path d="M1093 13 c9 -2 25 -2 35 0 9 3 1 5 -18 5 -19 0 -27 -2 -17 -5z"/>
<path d="M1473 13 c9 -2 25 -2 35 0 9 3 1 5 -18 5 -19 0 -27 -2 -17 -5z"/>
<path d="M1183 3 c20 -2 54 -2 75 0 20 2 3 4 -38 4 -41 0 -58 -2 -37 -4z"/>
<path d="M1343 3 c20 -2 54 -2 75 0 20 2 3 4 -38 4 -41 0 -58 -2 -37 -4z"/>
</g>
</svg>
